<?xml version="1.0" encoding="UTF-8" standalone="no"?>
<svg
   viewBox="0 0 1438 1027"
   version="1.1"
   id="svg4"
   sodipodi:docname="The Lost Caverns of Ixalan.svg"
   inkscape:version="1.1.2 (0a00cf5339, 2022-02-04)"
   xmlns:inkscape="http://www.inkscape.org/namespaces/inkscape"
   xmlns:sodipodi="http://sodipodi.sourceforge.net/DTD/sodipodi-0.dtd"
   xmlns="http://www.w3.org/2000/svg"
   xmlns:svg="http://www.w3.org/2000/svg">
  <defs
     id="defs8" />
  <sodipodi:namedview
     id="namedview6"
     pagecolor="#ffffff"
     bordercolor="#666666"
     borderopacity="1.0"
     inkscape:pageshadow="2"
     inkscape:pageopacity="0.0"
     inkscape:pagecheckerboard="0"
     showgrid="true"
     inkscape:zoom="0.85004869"
     inkscape:cx="719.37056"
     inkscape:cy="510.55899"
     inkscape:window-width="3840"
     inkscape:window-height="2091"
     inkscape:window-x="0"
     inkscape:window-y="0"
     inkscape:window-maximized="1"
     inkscape:current-layer="svg4" />
  <path
     fill="#000"
     fill-rule="nonzero"
     d="m719 0 127.5 167v21c14 5 26.833 10.667 38.5 17l60-60.5c60.667 38.333 109.667 86.833 147 145.5l-61 61c7 11.667 13.333 25.667 19 42l388 120.5-.039.012L1050 634c-5.667 16.333-12 30.333-19 42l61 61c-37.333 58.667-86.333 107.167-147 145.5L885 822c-11.667 6.333-24.5 12-38.5 17v21L719 1027 591.5 860v-21c-14-5-26.833-10.667-38.5-17l-60 60.5c-60.667-38.333-109.667-86.833-147-145.5l61-61c-7-11.667-13.333-25.667-19-42L0 513.5 388 393c5.667-16.333 12-30.333 19-42l-61-61c37.333-58.667 86.333-107.167 147-145.5l60 60.5c11.667-6.333 24.5-12 38.5-17v-21L719 0Zm0 36.001-.01.013L613 175.5V203c-22.333 7-43.5 16.833-63.5 29.5l-.054-.053L489.5 173.5c-43.667 28.667-82 66.833-115 114.5l.054.053L434 347c-12.333 19.333-22 40.833-29 64.5l-332.5 102 6.617 2.03L405 615.5c7 23.667 16.667 45.167 29 64.5l-59.446 58.947-.054.053c33 47.667 71.333 85.833 115 114.5l59.946-58.947.054-.053c20 12.667 41.167 22.5 63.5 29.5v27.5l105.99 139.486.01.013.01-.013L825 851.5V824c22.333-7 43.5-16.833 63.5-29.5l.054.053L948.5 853.5c43.667-28.667 82-66.833 115-114.5l-.054-.053L1004 680c12.333-19.333 22-40.833 29-64.5l332.5-102-332.5-102c-7-23.667-16.667-45.167-29-64.5l59.446-58.947.054-.053c-33-47.667-71.333-85.833-115-114.5l-59.946 58.947-.054.053c-20-12.667-41.167-22.5-63.5-29.5v-27.5L719.01 36.014 719 36ZM802 830.5V845l-83 108.999L636 845v-14.5c21.667 7 49.333 10.5 83 10.5s61.333-3.5 83-10.5ZM503 634c22 39 52.667 69.833 92 92.5L488 833c-34.667-24.333-65.5-55-92.5-92L503 634Zm432 0 107.5 107c-27 37-57.833 67.667-92.5 92L843 726.5c39.333-22.667 70-53.5 92-92.5ZM830 734.5l43.5 43.5c-42.57 25.74-93.47 39.392-152.703 40.956L719 819l-1.797-.044C657.97 817.392 607.07 803.74 564.5 778l43.5-43.5c32 17.667 69 26.5 111 26.5s79-8.833 111-26.5ZM933.5 532c-7.5 61.5-26.5 109.5-80 154-35.667 29.667-80.5 45.5-134.5 47.5v-85c71 0 142.5-38.833 214.5-116.5Zm-429 0c72 77.667 143.5 116.5 214.5 116.5v85c-54-2-98.833-17.833-134.5-47.5-53.5-44.5-72.5-92.5-80-154ZM451 362l43.784 43.287.106.104.07.07.036.035C495 405.5 469.5 447 469.5 513.5l.008 1.987c.5 65.339 25.492 106.013 25.488 106.017l-.036.035-.07.07-.106.104L451 665c-43-73-40.5-151.5-40.5-151.5S408 435 451 362Zm536 0c43 73 40.5 151.5 40.5 151.5.002.065 2.482 78.53-40.5 151.5l-43.784-43.287-.106-.104-.07-.07-.036-.035C943 621.5 968.5 580 968.5 513.5v-.001l-.008-1.986c-.5-65.339-25.492-106.013-25.488-106.017l.036-.035.07-.07.106-.104L987 362Zm-268 44.445c59.125 0 107.055 47.93 107.055 107.055 0 59.125-47.93 107.055-107.055 107.055-59.125 0-107.055-47.93-107.055-107.055 0-59.125 47.93-107.055 107.055-107.055ZM398 436.5c-6 23-9 48.667-9 77l.003 1.543c.107 27.723 3.106 52.875 8.997 75.457l-248-77 248-77Zm642 0 248 77-248 77c6-23 9-48.667 9-77s-3-54-9-77Zm-321 8.99c-37.561 0-68.01 30.449-68.01 68.01 0 37.561 30.449 68.01 68.01 68.01 37.561 0 68.01-30.449 68.01-68.01 0-37.561-30.449-68.01-68.01-68.01Zm0 8.632c32.793 0 59.378 26.585 59.378 59.378S751.793 572.878 719 572.878s-59.378-26.585-59.378-59.378 26.585-59.378 59.378-59.378Zm0 15.943c-23.988 0-43.435 19.447-43.435 43.435 0 23.988 19.447 43.435 43.435 43.435 23.988 0 43.435-19.447 43.435-43.435 0-23.988-19.447-43.435-43.435-43.435Zm0-176.565c54 2 98.833 17.833 134.5 47.5 53.5 44.5 72.5 92.5 80 154-72-77.667-143.5-116.5-214.5-116.5v-85Zm0 0v85c-71 0-142.5 38.833-214.5 116.5 7.5-61.5 26.5-109.5 80-154 35.667-29.667 80.5-45.5 134.5-47.5ZM950 194c34.667 24.333 65.5 55 92.5 92L935 393c-22-39-52.667-69.833-92-92.5L950 194Zm-462 0 107 106.5c-39.333 22.667-70 53.5-92 92.5L395.5 286c27-37 57.833-67.667 92.5-92Zm231 14 1.797.044C780.03 209.608 830.93 223.26 873.5 249L830 292.5c-32-17.667-69-26.5-111-26.5s-79 8.833-111 26.5L564.5 249c42.57-25.74 93.47-39.392 152.703-40.956L719 208Zm0-134.999L802 182v14.5c-21.667-7-49.333-10.5-83-10.5s-61.333 3.5-83 10.5V182l82.999-108.999H719Z"
     id="path2" />
  <path
     style="fill:#808080;stroke-width:1.1764"
     d="m 587.23161,270.19119 c -16.32473,-16.34365 -20.60335,-21.24804 -19.3984,-22.23547 2.62984,-2.15508 27.12901,-14.11205 36.72636,-17.92453 20.82053,-8.2708 48.08841,-15.00165 77.16609,-19.04781 18.53651,-2.57936 61.77813,-1.94036 82.34822,1.2169 34.38219,5.27723 62.33347,13.65632 88.81845,26.62552 8.41128,4.11884 16.2269,8.18246 17.36804,9.03025 1.87774,1.39502 0.0676,3.54591 -19.05769,22.64564 l -21.13249,21.10421 -10.3524,-4.89433 c -14.05524,-6.64493 -23.91569,-10.22339 -37.61913,-13.65235 -54.3926,-13.61047 -116.17304,-8.6906 -162.60011,12.94861 -6.07946,2.83358 -11.1141,5.15196 -11.18809,5.15196 -0.074,0 -9.55947,-9.43587 -21.07885,-20.9686 z"
     id="path139" />
  <path
     style="fill:#808080;stroke-width:1.1764"
     d="m 926.64335,378.23656 c -19.06626,-29.01179 -42.7595,-52.53399 -71.57886,-71.06215 l -10.74217,-6.90621 53.09351,-52.63897 53.09351,-52.63897 11.20376,8.58789 c 24.9913,19.15629 47.8943,41.88018 69.1238,68.58336 l 10.8953,13.70447 -52.65762,52.62875 c -28.96169,28.94581 -52.9466,52.63563 -53.2998,52.64404 -0.35319,0.008 -4.46234,-5.79758 -9.13143,-12.90221 z"
     id="path178" />
  <path
     style="fill:#808080;stroke-width:1.1764"
     d="m 965.61669,642.56852 -21.27839,-21.42763 4.10773,-8.82302 c 13.11712,-28.17435 20.29193,-62.99169 20.31236,-98.57013 0.0204,-35.51345 -6.31809,-67.24223 -19.34726,-96.84733 l -5.01567,-11.39668 21.36474,-21.34132 21.36473,-21.34132 7.7656,15.63699 c 13.40217,26.98696 23.30107,58.63851 28.80477,92.1032 3.0325,18.4381 3.0325,67.43934 0,85.87744 -6.0377,36.71154 -17.6856,72.26703 -32.84041,100.24664 l -3.95981,7.3108 z"
     id="path217" />
  <path
     style="fill:#808080;stroke-width:1.1764"
     d="m 1042.1591,585.15185 c 9.7475,-47.52059 9.7475,-95.78311 0,-143.3037 -0.7295,-3.55628 -0.5692,-3.94203 1.4205,-3.41825 9.3607,2.46415 240.4568,74.61185 240.4568,75.0701 0,0.45825 -231.0961,72.60596 -240.4568,75.0701 -1.9897,0.52378 -2.15,0.13803 -1.4205,-3.41825 z"
     id="path256" />
  <path
     style="fill:#808080;stroke-width:1.1764"
     d="m 655.4912,942.6358 -63.14036,-82.68506 -0.0159,-10.69587 -0.0159,-10.69588 -8.52892,-3.3073 c -4.69091,-1.81901 -13.6359,-5.65921 -19.87775,-8.53376 l -11.34884,-5.22645 -29.82528,30.18624 -29.82528,30.18625 -11.77536,-8.01882 c -40.03485,-27.26306 -77.06139,-61.18329 -104.83804,-96.04268 -12.1704,-15.27372 -28.67239,-38.52338 -28.67239,-40.39654 0,-0.52848 13.55362,-14.52202 30.11915,-31.09675 l 30.11916,-30.13587 -4.70016,-8.69376 c -2.58509,-4.78157 -6.98686,-14.39957 -9.78171,-21.37335 l -5.08156,-12.67957 -12.39671,-3.87754 C 369.08712,627.41645 282.64558,600.56548 183.813,569.88028 84.980427,539.19507 4.1174112,513.82395 4.1174112,513.5 c 0,-0.32395 80.8630158,-25.69507 179.6955888,-56.38028 98.83258,-30.6852 185.27412,-57.53617 192.09232,-59.66881 l 12.39671,-3.87754 5.08156,-12.67957 c 2.79485,-6.97378 7.19662,-16.59178 9.78171,-21.37335 l 4.70016,-8.69376 -30.11916,-30.13587 c -16.56553,-16.57473 -30.11915,-30.56827 -30.11915,-31.09675 0,-1.87354 16.50656,-25.12914 28.94856,-40.78479 13.65152,-17.17755 46.71043,-51.02634 62.81089,-64.3116 13.60534,-11.22642 27.16364,-21.41048 41.50855,-31.17837 l 12.01779,-8.18328 29.82528,30.18625 29.82528,30.18624 11.34884,-5.25135 c 6.24185,-2.88826 15.18684,-6.74358 19.87775,-8.56741 l 8.52892,-3.31603 0.0159,-10.66224 0.0159,-10.66223 63.14036,-82.685052 C 715.60845,5.6380539 718.72835,1.7797752 720.65318,3.7805883 c 1.11189,1.1557853 29.86476,38.5931627 63.89527,83.1941727 l 61.87366,81.092739 v 10.23598 10.23597 l 6.76432,2.65032 c 3.72037,1.45768 12.48618,5.32236 19.47957,8.58819 l 12.71525,5.93787 30.22347,-30.14422 30.22346,-30.14421 13.49614,9.30308 c 49.20268,33.91613 91.91128,76.35473 123.18028,122.40141 l 8.4484,12.44118 -30.3906,30.37367 -30.3905,30.37368 6.7648,13.7453 c 3.7206,7.55992 8.0335,17.28298 9.5842,21.60679 l 2.8194,7.86147 8.8287,2.71319 c 102.7473,31.57587 375.2783,116.7261 375.2783,117.25283 0,0.52673 -272.531,85.67696 -375.2783,117.25283 l -8.8287,2.71319 -2.8194,7.86147 c -1.5507,4.32381 -5.8636,14.04687 -9.5842,21.60679 l -6.7648,13.7453 30.3816,30.36476 30.3816,30.36474 -4.7933,7.15629 c -26.6161,39.73717 -58.9318,74.96587 -96.1985,104.86997 -14.99544,12.03287 -41.95975,31.10246 -43.97874,31.10246 -0.7127,0 -14.63555,-13.33204 -30.93968,-29.62676 l -29.64385,-29.62676 -12.71514,5.93781 c -6.99333,3.2658 -15.75909,7.13046 -19.47946,8.58814 l -6.76432,2.65032 v 10.21508 10.21507 l -61.86951,81.11364 c -34.02822,44.6125 -62.78109,82.05926 -63.89527,83.21506 -1.92964,2.0017 -5.02203,-1.8223 -65.16613,-80.5836 z m 117.28828,-21.16868 52.46737,-69.06439 v -13.88772 -13.88774 l 10.29353,-3.49366 c 9.61288,-3.26266 38.82687,-17.08993 48.85514,-23.12365 l 4.44591,-2.67497 29.09023,29.07277 c 15.99962,15.99002 29.8975,29.07277 30.88416,29.07277 2.68256,0 32.04268,-22.40376 47.64535,-36.35663 20.36503,-18.21162 43.49323,-44.20681 61.68933,-69.33621 l 6.2559,-8.63957 -29.6671,-29.6843 -29.6672,-29.6843 4.3866,-7.48463 c 6.7836,-11.57437 15.144,-29.94947 19.9286,-43.80046 l 4.3449,-12.57807 9.5743,-2.91751 c 135.0508,-41.15303 323.0438,-99.05566 323.0438,-99.49885 0,-0.44319 -187.993,-58.34582 -323.0438,-99.49885 l -9.5743,-2.91751 -4.3449,-12.57807 c -4.7846,-13.85099 -13.145,-32.22609 -19.9286,-43.80046 l -4.3866,-7.48463 29.6672,-29.6843 29.6671,-29.6843 -6.2559,-8.63957 c -17.1685,-23.71024 -40.0147,-49.678 -58.47466,-66.46417 -18.97272,-17.25244 -47.56989,-39.22867 -51.0474,-39.22867 -0.88361,0 -14.69716,13.08275 -30.69678,29.07277 l -29.09023,29.07277 -4.44591,-2.67497 c -10.02827,-6.03372 -39.24226,-19.86099 -48.85514,-23.12365 l -10.29353,-3.49366 V 188.48499 174.59727 L 772.76096,105.53288 C 743.89372,67.547472 719.70633,36.468499 719.01121,36.468499 c -0.69513,0 -24.9855,31.200742 -53.97861,69.334981 l -52.71473,69.33498 v 13.61942 13.61942 l -6.17612,2.1512 c -13.097,4.56178 -31.42797,12.79219 -43.73863,19.63818 l -12.8401,7.1404 -13.0318,-12.71529 c -7.16748,-6.99343 -20.54761,-20.09331 -29.7336,-29.11087 -15.30751,-15.02683 -16.92794,-16.29242 -19.41065,-15.16009 -1.48987,0.67951 -8.26735,5.35983 -15.06108,10.40071 -32.61196,24.19779 -63.77935,55.76785 -89.97997,91.14246 l -9.14692,12.34968 29.94863,29.41382 29.94862,29.41381 -2.24588,3.52803 c -5.35018,8.40452 -18.37277,36.4461 -22.10461,47.59789 -3.59457,10.7416 -4.47,12.30734 -7.59227,13.57906 -1.94106,0.79061 -76.71619,23.85969 -166.16695,51.26464 C 145.53578,490.41586 72.348797,513.13595 72.348797,513.5 c 0,0.36405 73.186983,23.08414 162.637743,50.48907 89.45076,27.40495 164.22589,50.47403 166.16695,51.26464 3.12227,1.27172 3.9977,2.83746 7.59227,13.57906 3.73184,11.15179 16.75443,39.19337 22.10461,47.59789 l 2.24588,3.52803 -29.94862,29.41381 -29.94863,29.41382 9.14692,12.34968 c 26.20062,35.37461 57.36801,66.94467 89.97997,91.14246 6.79373,5.04088 13.57121,9.7212 15.06108,10.40071 2.48271,1.13233 4.10314,-0.13326 19.41065,-15.16009 9.18599,-9.01756 22.56612,-22.11744 29.7336,-29.11087 l 13.0318,-12.71529 12.8401,7.1404 c 12.31066,6.84599 30.64163,15.0764 43.73863,19.63818 l 6.17612,2.1512 v 13.60695 13.60695 l 47.35023,62.30201 c 60.72947,79.90602 58.59427,77.16111 59.69979,76.74678 0.51932,-0.19464 24.55454,-31.43286 53.41159,-69.41827 z"
     id="path295" />
  <path
     style="fill:#808080;stroke-width:1.1764"
     d="m 637.02234,188.76226 v -6.87862 l 40.81342,-53.62493 c 38.73403,-50.892808 40.91521,-53.518311 42.8113,-51.532311 1.09883,1.150939 19.78949,25.491371 41.5348,54.089841 l 39.53693,51.99722 v 6.39434 6.39434 l -7.94073,-2.08421 c -41.28818,-10.83697 -114.53063,-10.62581 -151.16781,0.43582 l -5.58791,1.68711 z"
     id="path334" />
  <path
     style="fill:#808080;stroke-width:1.1764"
     d="m 450.29438,339.09158 c -28.61638,-28.62706 -52.37096,-52.42276 -52.78795,-52.87935 -1.06591,-1.16709 16.05616,-22.6898 29.77293,-37.42505 18.40545,-19.77206 38.24626,-37.67684 55.10754,-49.73024 l 5.9436,-4.24882 52.71268,52.72244 52.71268,52.72244 -10.42375,6.77891 c -31.14555,20.25496 -59.06308,48.56431 -75.34079,76.39819 -2.46991,4.22339 -4.75544,7.68605 -5.07895,7.69479 -0.32351,0.008 -24.00161,-23.40625 -52.61799,-52.03331 z"
     id="path373" />
  <path
     style="fill:#808080;stroke-width:1.1764"
     d="m 443.03807,648.49227 c -14.60352,-29.73851 -23.4932,-58.72029 -29.13803,-94.99456 -2.93953,-18.88981 -2.94269,-61.06999 -0.006,-79.99542 3.97261,-25.60126 9.82235,-48.28108 18.05385,-69.99599 4.59325,-12.11712 17.76373,-39.43286 18.97889,-39.36246 0.44662,0.0259 10.31745,9.21299 21.93517,20.41581 l 21.12315,20.36877 -4.2214,9.28837 c -27.51306,60.53717 -27.59262,138.25694 -0.20286,198.17608 l 4.42426,9.67871 -21.12315,20.36876 c -11.61772,11.20283 -21.48855,20.38994 -21.93517,20.41582 -0.44662,0.0259 -3.99654,-6.43788 -7.88873,-14.36389 z"
     id="path412" />
  <path
     style="fill:#808080;stroke-width:1.1764"
     d="m 273.80785,551.38934 c -65.51096,-20.42527 -119.11083,-37.47547 -119.11083,-37.88933 0,-0.89035 240.99221,-75.8787 241.6077,-75.17987 0.23167,0.26304 -0.76508,6.30596 -2.21501,13.42871 -1.44993,7.12275 -3.23299,19.06187 -3.96235,26.53137 -1.65154,16.91383 -1.71847,53.33333 -0.12772,69.50493 1.14093,11.5988 5.15969,35.45794 6.60824,39.2328 0.46308,1.20676 -0.0168,1.72982 -1.50464,1.64006 -1.20152,-0.0725 -55.78444,-16.84339 -121.29539,-37.26867 z"
     id="path451" />
  <path
     style="fill:#808080;stroke-width:1.1764"
     d="m 479.37856,825.69807 c -18.02682,-13.50833 -33.88242,-27.96562 -52.0992,-47.50452 -12.76076,-13.6869 -30.67381,-35.968 -30.0271,-37.34912 0.79772,-1.70362 105.5958,-105.45387 105.99416,-104.93438 0.22104,0.28825 2.91011,4.60961 5.97571,9.60303 17.44069,28.40835 43.38535,54.47379 74.10998,74.45501 l 10.42375,6.77891 -52.76936,52.77913 c -29.02315,29.02852 -52.77416,52.77914 -52.78001,52.77914 -0.006,0 -3.97843,-2.97324 -8.82793,-6.6072 z"
     id="path490" />
  <path
     style="fill:#808080;stroke-width:1.1764"
     d="m 707.01833,732.07146 c -53.36206,-3.75467 -97.46596,-22.82713 -134.69063,-58.24613 -34.59514,-32.91702 -53.47459,-67.67922 -62.79467,-115.62201 -5.2529,-27.02112 -6.95138,-26.44412 14.94323,-5.07648 54.2818,52.97532 105.52064,82.7381 160.19041,93.04876 16.81839,3.17194 54.73298,2.79531 72.23109,-0.7175 54.02595,-10.84592 106.66575,-42.33744 160.56514,-96.05737 l 15.16162,-15.11115 -0.82413,5.78075 c -7.90566,55.45287 -27.28363,95.70094 -63.02662,130.90641 -39.11703,38.52876 -84.79698,57.97606 -144.6976,61.60201 -2.91159,0.17624 -10.58762,-0.052 -17.05784,-0.50729 z"
     id="path529" />
  <path
     style="fill:#808080;stroke-width:1.1764"
     d="m 709.37113,619.25213 c -38.57389,-3.11661 -75.04404,-30.22001 -88.85557,-66.03449 -5.85601,-15.18514 -7.42494,-23.57768 -7.42494,-39.71764 0,-21.97451 5.37116,-40.36879 16.92824,-57.97315 27.67279,-42.15265 80.74209,-59.11803 127.87011,-40.87796 17.06001,6.60278 34.6208,19.86018 45.7372,34.52901 6.64713,8.77132 15.94596,27.95029 18.63805,38.44123 2.73175,10.64549 3.63756,30.88043 1.87222,41.82366 -9.00705,55.83439 -58.25717,94.37496 -114.76531,89.80934 z M 733.7236,580.449 c 3.42871,-0.70531 10.67886,-3.40483 16.11144,-5.99894 18.05493,-8.62137 31.84169,-26.32931 36.00471,-46.24502 11.88036,-56.83509 -45.62047,-101.23888 -98.05529,-75.72111 -14.92507,7.26339 -29.04798,24.08597 -34.43481,41.01722 -3.39356,10.66623 -3.39356,29.33147 0,39.9977 7.10756,22.33961 26.02633,40.47457 48.37486,46.37069 7.79726,2.05712 23.43887,2.34036 31.99909,0.57946 z"
     id="path568" />
  <path
     style="fill:#808080;stroke-width:1.1764"
     d="m 705.66297,570.64989 c -14.99803,-3.63797 -31.13648,-16.09912 -38.32528,-29.59248 -6.60411,-12.39593 -8.54024,-28.56787 -5.03249,-42.03505 5.50343,-21.12907 23.80466,-38.6089 45.06513,-43.0425 35.70315,-7.44542 70.0316,20.7501 70.0316,57.52014 0,37.42991 -35.72097,65.88654 -71.73896,57.14989 z m 32.85656,-17.72038 c 8.34889,-4.14517 16.45163,-12.59735 20.63692,-21.52693 2.7262,-5.81651 3.15283,-8.23903 3.15283,-17.90258 0,-9.66355 -0.42663,-12.08607 -3.15283,-17.90258 -4.18727,-8.9338 -12.29146,-17.38495 -20.63692,-21.52043 -9.4791,-4.69725 -24.84114,-5.507 -34.61258,-1.82446 -18.28836,6.89229 -28.35363,21.54233 -28.49497,41.47451 -0.0686,9.66989 0.18131,10.7211 4.59109,19.31473 5.41422,10.55105 12.00016,16.75393 22.46498,21.15835 6.04152,2.54274 8.29792,2.85534 18.07891,2.50464 9.45332,-0.33895 12.2234,-0.92082 17.97257,-3.77525 z"
     id="path607" />
  <path
     style="fill:#808080;stroke-width:1.1764"
     d="m 506.02901,488.00398 c 8.3791,-58.45518 28.00605,-98.39415 66.22286,-134.75716 16.7405,-15.92847 31.12069,-26.15858 50.06543,-35.61669 58.12155,-29.01706 124.99804,-30.49578 185.2835,-4.09685 34.27387,15.00848 69.8011,45.63141 91.04626,78.47793 16.43906,25.41593 27.93827,58.33837 33.15333,94.91845 l 0.82413,5.78077 -15.16162,-15.11116 C 863.76982,424.08497 810.60782,392.214 757.53928,381.72403 c -16.44872,-3.2514 -44.80316,-4.35276 -61.70271,-2.3967 -56.51546,6.54146 -113.27325,37.85683 -171.36031,94.54583 -18.8589,18.405 -19.08471,18.57796 -18.44725,14.13082 z"
     id="path646" />
  <path
     style="fill:#808080;stroke-width:1.1764"
     d="m 691.13688,816.92319 c -28.27111,-2.82016 -56.94145,-9.13402 -80.12233,-17.64476 -13.05106,-4.79163 -42.59522,-18.83382 -43.83039,-20.83236 -0.33906,-0.5486 8.7721,-10.37516 20.24701,-21.83679 l 20.86348,-20.83932 11.12873,5.18708 c 31.32182,14.59906 70.71969,21.96387 108.93756,20.36416 36.03777,-1.50845 63.36877,-7.80077 91.35685,-21.03277 l 10.3524,-4.89433 21.13249,21.10421 c 19.12533,19.09973 20.93543,21.25062 19.05769,22.64564 -1.14114,0.84779 -8.95676,4.91141 -17.36804,9.03025 -26.13146,12.79609 -55.45503,21.59959 -88.23025,26.48843 -19.09324,2.848 -56.19965,3.98885 -73.5252,2.26056 z"
     id="path685" />
  <path
     style="fill:#808080;stroke-width:1.1764"
     d="m 677.83576,898.74129 -40.81342,-53.62493 v -6.87862 -6.87861 l 5.58791,1.68498 c 36.24394,10.92896 110.31872,11.14218 151.16781,0.43511 l 7.94073,-2.08136 v 6.39434 6.39434 l -39.53693,51.99722 c -21.74531,28.59847 -40.43597,52.9389 -41.5348,54.08985 -1.89609,1.98599 -4.07727,-0.63951 -42.8113,-51.53232 z"
     id="path724" />
  <path
     style="fill:#808080;stroke-width:1.1764"
     d="m 897.41583,779.37077 -53.09351,-52.63897 10.74217,-6.90621 c 28.59837,-18.38608 51.50778,-41.01667 70.80488,-69.94317 4.93431,-7.39655 9.3261,-13.57326 9.75953,-13.726 0.43343,-0.15275 24.48399,23.40473 53.44568,52.34994 l 52.65762,52.62766 -10.8953,13.70447 c -21.2295,26.70318 -44.1325,49.42708 -69.1238,68.58336 l -11.20376,8.58789 z"
     id="path763" />
  <path
     style="fill:#ffffff;stroke-width:1.1764"
     d="m 588.42146,270.13723 c -10.79678,-10.91539 -19.63051,-20.3705 -19.63051,-21.01136 0,-2.57844 33.45921,-18.10925 51.40915,-23.86266 29.23543,-9.37068 56.49052,-14.08429 86.23002,-14.91298 44.51681,-1.24046 82.2369,4.42268 119.87451,17.99746 13.86242,4.99976 43.64554,19.24667 43.64554,20.87807 0,1.49172 -38.92316,40.75763 -40.40186,40.75763 -0.59551,0 -6.2673,-2.34474 -12.60399,-5.21054 -6.33667,-2.86579 -16.4574,-6.78372 -22.49051,-8.70651 -13.02511,-4.15118 -35.64522,-8.8703 -38.69507,-8.07275 -1.18782,0.31062 -2.34198,0.0179 -2.56478,-0.65054 -0.25375,-0.76125 -9.83468,-1.43157 -25.64318,-1.79411 -19.62563,-0.45008 -28.76978,-0.13058 -41.11951,1.43669 -8.7348,1.10852 -16.04799,2.47171 -16.25155,3.02931 -0.20356,0.5576 -1.08539,0.73935 -1.95962,0.40387 -2.01144,-0.77186 -24.5999,5.17149 -25.09765,6.60356 -0.20356,0.58565 -1.02392,0.81392 -1.82301,0.50728 -1.47359,-0.56546 -17.98995,5.69374 -26.55685,10.06424 -2.57609,1.31423 -5.13533,2.3895 -5.68721,2.3895 -0.55188,0 -9.83714,-8.93077 -20.63392,-19.84616 z"
     id="path1124" />
  <path
     style="fill:#ffffff;stroke-width:1.1764"
     d="m 637.02233,188.94823 v -5.90504 l 32.54185,-42.70086 c 36.53481,-47.940358 48.61252,-63.28792 49.80422,-63.28792 0.89774,0 1.34721,0.578757 49.02634,63.12723 32.45519,42.57675 33.32404,43.85732 33.32404,49.11483 0,2.96904 -0.30883,5.39826 -0.6863,5.39826 -0.37746,0 -4.97486,-1.09497 -10.21644,-2.43326 -5.24158,-1.3383 -10.49124,-2.18193 -11.66593,-1.87474 -1.17469,0.30719 -2.1358,0.16394 -2.1358,-0.31832 0,-0.48226 -4.89677,-1.54278 -10.88173,-2.35671 -13.89886,-1.8902 -76.1721,-3.1641 -76.1721,-1.55823 0,0.63612 -1.30446,0.90721 -2.8988,0.60243 -5.82341,-1.11321 -34.72568,3.38263 -47.98064,7.46355 -1.77143,0.54538 -2.05871,-0.19018 -2.05871,-5.27122 z"
     id="path1163" />
  <path
     style="fill:#ffffff;stroke-width:1.1764"
     d="m 714.32414,1017.0272 c -5.6269,-6.2584 -31.66813,-39.92516 -87.58569,-113.23291 l -32.95986,-43.21029 -0.85022,-11.34031 -0.85022,-11.3403 -4.84601,-1.90356 c -2.66532,-1.04696 -11.47826,-4.8792 -19.58433,-8.51609 l -14.73831,-6.61251 -30.198,30.02457 -30.19801,30.02457 -13.91711,-9.78592 c -48.96705,-34.43153 -85.80183,-70.60444 -119.04174,-116.90269 -5.19472,-7.23548 -9.80991,-14.1065 -10.25599,-15.26895 -0.63653,-1.65876 5.65796,-8.61359 29.25334,-32.32225 l 30.06437,-30.20872 -4.54012,-8.82302 c -2.49707,-4.85267 -6.98453,-14.66749 -9.97212,-21.81072 l -5.43201,-12.98769 -96.10639,-29.83237 C 239.70721,586.57024 156.75573,560.72727 108.22909,545.54923 59.702462,530.37118 17.219602,517.14182 13.822738,516.15066 c -3.396865,-0.99116 -6.1761172,-2.15157 -6.1761172,-2.5787 0,-0.74488 92.0307752,-29.66596 289.0378592,-90.83146 l 91.99031,-28.56056 4.36326,-10.63006 c 2.3998,-5.84654 6.88834,-15.70288 9.97452,-21.90298 l 5.61126,-11.27292 -28.80788,-28.72479 c -15.84433,-15.79864 -29.35538,-29.71262 -30.02455,-30.91995 -0.98922,-1.78474 -0.16571,-3.73332 4.40469,-10.42232 19.04779,-27.87742 48.20577,-61.28963 73.87161,-84.64969 14.59172,-13.28082 32.86226,-27.61421 52.90374,-41.5034 l 11.58655,-8.02974 30.17576,30.00234 30.17575,30.00234 14.73831,-6.61252 c 8.10607,-3.63688 16.91901,-7.46912 19.58433,-8.51609 l 4.84601,-1.90356 0.85504,-11.40454 0.85503,-11.40454 48.25604,-63.1449 C 696.37523,32.048434 713.10446,10.612331 717.2737,6.7469312 l 2.87372,-2.6642944 18.72811,24.3888562 c 10.30047,13.41387 38.71228,50.56459 63.13735,82.557157 l 44.40922,58.16829 v 10.39609 c 0,6.5505 0.46211,10.39609 1.24924,10.39609 0.68706,0 9.5542,3.69822 19.70475,8.21827 l 18.45552,8.21827 30.04699,-30.02208 30.04698,-30.02209 10.53893,7.29251 c 49.82829,34.47918 91.85599,75.81456 124.17799,122.13235 l 9.3988,13.46844 -30.2373,30.25402 -30.2372,30.25401 8.2556,18.03872 c 4.5405,9.92129 8.8605,19.89154 9.5999,22.15612 l 1.3444,4.11741 56.7598,17.50494 c 31.2179,9.62772 113.4037,35.23854 182.635,56.91291 69.2313,21.67438 129.4485,40.48166 133.8159,41.79398 4.3674,1.3123 7.9407,2.71418 7.9407,3.1153 0,0.40111 -7.8084,3.18016 -17.352,6.17567 -86.1621,27.04431 -261.3285,81.69711 -307.0396,95.79794 l -56.7598,17.50911 -1.3444,4.11741 c -0.7394,2.26458 -5.0594,12.23483 -9.5999,22.15612 l -8.2556,18.03872 30.2372,30.25401 30.2373,30.25402 -9.397,13.46844 c -28.1314,40.32007 -64.4617,77.86753 -103.64144,107.11371 -16.83684,12.56806 -29.29979,21.05404 -30.92103,21.05404 -0.68056,0 -14.53633,-13.23305 -30.79059,-29.40678 l -29.55319,-29.4068 -18.40523,8.23154 c -10.12286,4.52734 -18.96896,8.23153 -19.65797,8.23153 -0.79155,0 -1.25275,3.82711 -1.25275,10.3956 v 10.39562 l -40.76765,53.42426 c -59.29425,77.70256 -82.90952,108.51264 -84.51285,110.26104 -1.14647,1.2503 -2.45014,0.3973 -6.81746,-4.4602 z m 22.94799,-47.96506 c 9.33738,-12.13166 32.95153,-43.06716 52.47589,-68.74555 l 35.49883,-46.68799 v -13.98868 -13.9887 l 10.29352,-3.8348 c 5.66144,-2.10914 20.03123,-8.60367 31.93287,-14.43228 l 21.63934,-10.59748 23.06398,22.7761 c 34.89611,34.46053 34.75709,34.33826 38.08979,33.5018 3.12779,-0.78503 23.8526,-16.15831 39.53662,-29.32755 20.58503,-17.28442 47.19733,-46.28497 67.04613,-73.06296 l 8.6245,-11.63524 -29.5251,-29.54217 -29.5252,-29.54217 8.6027,-17.05455 c 4.7314,-9.38001 11.0323,-23.67183 14.0018,-31.7596 l 5.3992,-14.70504 113.4408,-34.78266 c 167.8127,-51.45392 218.5245,-67.26521 218.5245,-68.13315 0,-1.01478 -43.4554,-14.53763 -258.0369,-80.29823 l -73.9299,-22.65652 -5.3984,-14.70504 c -2.9692,-8.08777 -9.2697,-22.37959 -14.0011,-31.75961 l -8.6027,-17.05455 29.5252,-29.54217 29.5251,-29.54216 -8.6245,-11.63524 c -20.2079,-27.26251 -46.8333,-56.25571 -68.09736,-74.1534 -16.98104,-14.2927 -36.83188,-28.65308 -39.60813,-28.65308 -1.85573,0 -11.13318,8.35548 -31.4243,28.30142 l -28.79118,28.30141 -21.54711,-10.55196 c -11.85092,-5.80357 -26.17921,-12.27763 -31.84065,-14.38676 l -10.29352,-3.83481 v -14.00494 -14.00492 l -26.0929,-34.31952 C 757.84929,84.692123 727.681,45.621298 723.96858,41.647128 c -1.8819,-2.014564 -3.42162,-4.119627 -3.42162,-4.677916 0,-4.462289 -9.15331,6.913143 -73.34733,91.153658 l -34.88176,45.77464 v 13.79026 13.79024 l -14.12572,5.5243 c -7.76915,3.03835 -14.85278,6.25134 -15.7414,7.13996 -0.88862,0.88862 -1.91549,1.31587 -2.28191,0.94944 -0.36643,-0.36643 -7.38112,2.88638 -15.5882,7.22846 l -14.92197,7.8947 -9.55041,-9.27136 c -5.25273,-5.09926 -18.37851,-17.85572 -29.16841,-28.34771 -11.56653,-11.24716 -20.54719,-19.07633 -21.88204,-19.07633 -5.53073,0 -39.12679,27.02909 -62.09317,49.95591 -17.53495,17.50475 -27.78469,29.27902 -44.5835,51.21477 l -10.36049,13.52863 29.90604,29.41008 29.90604,29.41008 -8.4154,16.60694 c -4.62847,9.13381 -10.89807,22.98889 -13.93241,30.78907 -3.03436,7.80017 -6.15938,14.71525 -6.9445,15.36685 -1.89803,1.57522 -2.39422,1.73106 -164.90697,51.79283 C 72.550205,512.44822 72.348797,512.51147 72.348797,513.5 c 0,0.41793 5.42616,2.48253 12.058133,4.58798 12.849327,4.07927 307.17712,94.92619 313.3351,96.71369 5.15995,1.49779 6.56674,3.59232 11.6494,17.34445 2.47622,6.6999 8.53192,20.19912 13.45711,29.99828 l 8.9549,17.81665 -29.89139,29.41008 -29.8914,29.41008 10.36049,13.52864 c 16.90872,22.07927 27.08611,33.76658 44.57496,51.18811 23.19922,23.10993 56.5876,49.98256 62.10171,49.98256 1.33485,0 10.31551,-7.82916 21.88204,-19.07633 10.7899,-10.49199 23.91568,-23.24844 29.16841,-28.3477 l 9.55041,-9.27137 14.92197,7.8947 c 8.20708,4.34208 15.22177,7.5949 15.5882,7.22846 0.36642,-0.36643 1.39329,0.0608 2.28191,0.94944 0.88862,0.88862 7.97225,4.10161 15.7414,7.13997 l 14.12572,5.52429 v 13.76517 13.76516 l 52.57231,69.03369 c 28.91477,37.96854 53.20965,69.0337 53.98861,69.0337 0.77895,0 9.05596,-9.92591 18.39334,-22.05756 z"
     id="path1202" />
  <path
     style="fill:#ffffff;stroke-width:1.1764"
     d="m 450.16563,337.81915 -52.14863,-52.1585 6.13526,-8.13216 c 21.00399,-27.84036 63.65317,-69.37527 82.95115,-80.78396 0.68689,-0.40607 24.67182,22.68905 53.29985,51.32251 l 52.05097,52.06082 -9.89438,6.58457 c -15.10027,10.04904 -31.98012,24.10187 -44.38663,36.9528 -12.65528,13.10862 -19.04978,21.15147 -28.63698,36.0189 -3.65076,5.66144 -6.76919,10.29353 -6.92986,10.29353 -0.16067,0 -23.75901,-23.47132 -52.44075,-52.15851 z"
     id="path1241" />
  <path
     style="fill:#ffffff;stroke-width:1.1764"
     d="m 443.16825,646.75594 c -13.44959,-27.97619 -22.89864,-57.96953 -28.08275,-89.14082 -3.084,-18.5436 -3.084,-69.68665 0,-88.23024 2.91951,-17.55458 10.22419,-45.8674 15.49883,-60.07322 5.34671,-14.39992 19.45468,-44.21963 20.71072,-43.77583 0.50678,0.17906 9.99121,9.01319 21.07651,19.63141 16.08878,15.41087 20.03945,19.80167 19.5819,21.76346 -0.31526,1.35169 -2.44644,6.69267 -4.73596,11.86884 -5.83527,13.19249 -11.85513,33.88271 -14.88902,51.17354 -2.7044,15.41301 -4.74981,60.03088 -2.94888,64.32613 0.49364,1.17735 0.78914,4.39052 0.65666,7.14036 -0.13701,2.84359 0.28883,4.99972 0.98745,4.99972 0.67558,0 0.92473,0.79118 0.55366,1.75818 -2.21931,5.78342 9.57534,48.82046 17.96501,65.5518 1.5303,3.05183 2.78236,6.31878 2.78236,7.25986 0,1.4996 -38.64965,39.61378 -41.02015,40.45185 -0.50153,0.17732 -4.16289,-6.43995 -8.13634,-14.70504 z"
     id="path1280" />
  <path
     style="fill:#ffffff;stroke-width:1.1764"
     d="m 388.81759,586.22528 c -32.78188,-9.39966 -230.59136,-71.7935 -230.59136,-72.73402 0,-0.42577 4.3674,-2.13624 9.70533,-3.80105 5.33793,-1.66481 33.46449,-10.49243 62.50347,-19.61692 80.29047,-25.22851 164.33612,-50.99095 164.80848,-50.51859 0.23207,0.23207 -0.0715,3.06338 -0.67466,6.29181 -0.60313,3.22842 -0.85386,6.50244 -0.55718,7.27559 0.29668,0.77315 0.0885,1.57228 -0.46279,1.77583 -2.41587,0.89215 -4.74762,29.96488 -4.74762,59.19431 0,27.84804 2.23141,56.38368 4.55328,58.22792 0.40729,0.32351 0.76986,1.91165 0.80571,3.52921 0.0359,1.61755 0.45685,4.92619 0.9356,7.35252 0.96319,4.8816 0.67923,5.01834 -6.27826,3.02339 z"
     id="path1319" />
  <path
     style="fill:#ffffff;stroke-width:1.1764"
     d="m 475.12057,821.46443 c -15.82096,-11.95086 -52.74661,-48.67432 -66.33973,-65.97648 -5.48909,-6.98685 -9.98015,-13.16286 -9.98015,-13.72447 0,-1.98464 101.74535,-103.56474 103.73322,-103.56474 0.72123,0 3.86634,4.09934 6.98914,9.10965 16.59153,26.62004 43.66703,53.52074 74.33706,73.85719 l 8.59895,5.70172 -52.12091,52.13078 c -28.6665,28.67193 -52.18899,52.13078 -52.27219,52.13078 -0.0832,0 -5.90863,-4.349 -12.94539,-9.66443 z"
     id="path1358" />
  <path
     style="fill:#ffffff;stroke-width:1.1764"
     d="m 681.13745,815.25593 c -18.74358,-2.67198 -36.45235,-6.44041 -53.21483,-11.32412 -20.89352,-6.08729 -59.13167,-22.94439 -59.13167,-26.0679 0,-0.64647 8.94913,-10.20869 19.88695,-21.24938 l 19.88695,-20.07397 9.22903,4.29161 c 12.93681,6.01578 25.30246,10.47932 27.11001,9.7857 0.84132,-0.32284 1.52967,-0.13346 1.52967,0.42084 0,1.30625 20.67053,6.42754 22.17926,5.4951 0.63132,-0.39018 1.32541,-0.22538 1.54243,0.36623 0.71855,1.9588 29.13715,4.82106 47.85273,4.81961 40.57465,-0.003 68.05252,-5.83863 105.83025,-22.4752 l 6.23802,-2.7471 19.93695,20.03341 c 10.96534,11.01837 19.93697,20.57913 19.93697,21.24614 0,2.09289 -33.9802,17.65561 -50.58534,23.16776 -17.21973,5.71618 -35.85593,10.14435 -55.29095,13.13776 -17.53993,2.70153 -67.28052,3.40533 -82.93643,1.17351 z"
     id="path1397" />
  <path
     style="fill:#ffffff;stroke-width:1.1764"
     d="m 701.13631,731.06889 c -42.23535,-4.30366 -77.75016,-18.00879 -110.5819,-42.6735 -13.11367,-9.85158 -36.11599,-33.41385 -45.59075,-46.70059 -9.93551,-13.93285 -21.9564,-37.84505 -27.28537,-54.27658 -4.05392,-12.50002 -11.80716,-47.85904 -10.73027,-48.93593 0.3114,-0.31139 8.3979,6.86995 17.97001,15.95854 47.31021,44.92041 85.05428,69.59322 128.77131,84.17616 13.55884,4.5229 34.03676,9.23772 38.59175,8.88534 1.63525,-0.12651 3.94243,0.18371 5.12703,0.68938 1.18462,0.50566 13.36039,0.60042 27.05728,0.21058 28.05738,-0.79858 37.79377,-2.42181 60.93499,-10.15899 43.3891,-14.50697 83.84072,-41.23619 129.12487,-85.32187 l 16.92963,-16.48157 -0.81011,6.47022 c -1.25765,10.04474 -6.44758,32.32171 -10.21834,43.86065 -10.8579,33.22647 -27.56548,59.323 -54.76696,85.5437 -21.16835,20.4051 -41.14942,33.63647 -65.3547,43.2776 -30.90388,12.30923 -70.14818,18.43394 -99.16847,15.47686 z"
     id="path1436" />
  <path
     style="fill:#ffffff;stroke-width:1.1764"
     d="m 704.66552,618.1455 c -33.93553,-5.2497 -64.74171,-27.42548 -80.00208,-57.58937 -21.61062,-42.71588 -10.65047,-95.92389 26.22293,-127.3039 36.15853,-30.77165 87.93646,-33.50448 127.41616,-6.72502 19.74952,13.39629 33.06916,31.61827 41.8332,57.23004 2.67082,7.80513 3.20922,11.6719 3.64996,26.21354 0.57644,19.01918 -0.55682,26.04593 -6.81998,42.28683 -11.88651,30.82276 -40.58679,55.80448 -73.00696,63.54782 -11.61337,2.77379 -29.57485,3.84345 -39.29323,2.34006 z m 36.40798,-39.37576 c 11.42118,-3.99086 19.8291,-9.459 28.27754,-18.3904 12.26955,-12.97099 18.2509,-28.3347 18.2509,-46.87934 0,-19.70291 -6.09888,-34.52408 -19.89759,-48.35399 -9.63199,-9.65377 -20.46781,-15.82008 -33.04055,-18.80228 -7.2107,-1.71034 -28.07553,-1.95686 -29.24626,-0.34554 -0.41361,0.56926 -2.33508,1.15211 -4.26993,1.29522 -1.93485,0.14311 -3.70055,0.80813 -3.92379,1.47784 -0.22323,0.6697 -0.89708,0.91406 -1.49743,0.54302 -0.60035,-0.37104 -3.86377,0.61137 -7.25204,2.18314 -19.21671,8.91436 -34.75543,30.47511 -37.54664,52.09785 -3.34558,25.91726 6.47056,49.69896 26.8155,64.96625 8.63885,6.48279 21.84539,12.51879 25.3725,11.59643 1.17591,-0.3075 2.13801,-0.0742 2.13801,0.51847 0,0.59776 6.20692,1.0309 13.93964,0.97277 11.43382,-0.086 15.36703,-0.60357 21.88014,-2.87944 z"
     id="path1475" />
  <path
     style="fill:#ffffff;stroke-width:1.1764"
     d="m 705.84192,570.10708 c -16.74306,-4.36763 -33.5107,-18.97604 -40.66888,-35.43183 -2.46964,-5.67739 -2.81718,-8.27908 -2.83627,-21.23235 l -0.0218,-14.76214 4.60155,-9.35413 c 7.9126,-16.08492 23.48187,-28.77416 39.66406,-32.32694 3.79147,-0.83242 10.93721,-1.22701 16.72182,-0.9234 8.9177,0.46806 11.25972,1.10428 19.99041,5.43051 23.39375,11.59206 36.86729,36.44098 32.75667,60.4123 -3.24375,18.91607 -15.30664,34.92727 -32.87193,43.63121 -9.56593,4.7401 -10.5263,4.96884 -21.9055,5.21742 -6.54552,0.14299 -13.48909,-0.1543 -15.43016,-0.66065 z m 33.35781,-17.04135 c 7.71365,-3.9948 14.90005,-11.2128 19.58306,-19.66914 3.34412,-6.03865 3.52648,-7.06756 3.52648,-19.89659 0,-12.82903 -0.18236,-13.85795 -3.52648,-19.89659 -4.66123,-8.41702 -11.83793,-15.64543 -19.58306,-19.72415 -5.89675,-3.10534 -7.20524,-3.31798 -20.41737,-3.31798 -13.20135,0 -14.52405,0.21447 -20.3959,3.30709 -16.33003,8.60079 -24.96834,25.18385 -23.41414,44.94837 1.06424,13.53369 11.36973,27.95318 24.83449,34.74852 6.98714,3.52625 7.61413,3.62586 20.15195,3.20147 11.3541,-0.38433 13.7128,-0.83802 19.24097,-3.701 z"
     id="path1514" />
  <path
     style="fill:#ffffff;stroke-width:1.1764"
     d="m 914.06529,473.68089 c -51.40903,-50.55514 -101.72053,-80.6091 -154.27878,-92.15965 -10.09255,-2.21801 -15.40291,-2.55909 -41.00415,-2.6337 -28.38101,-0.0827 -29.9008,0.0311 -43.43442,3.25364 -52.07949,12.4007 -96.18068,38.90828 -150.42991,90.41779 -9.57211,9.0887 -17.67292,16.25582 -18.0018,15.92694 -1.14708,-1.14707 6.57991,-36.11295 10.76941,-48.73334 11.26884,-33.94605 29.80497,-62.43835 57.11878,-87.79854 22.33602,-20.73843 46.48224,-35.11891 75.15835,-44.76118 27.40185,-9.2138 36.31998,-10.6096 68.23138,-10.67906 24.37336,-0.0531 29.2328,0.2613 41.05642,2.656 44.37849,8.9882 79.07495,27.65562 111.30228,59.88295 24.55989,24.55989 39.25274,48.88998 50.39782,83.45443 4.44139,13.77418 10.54674,41.5507 9.93968,45.22099 -0.26475,1.60065 -4.55689,-1.98288 -16.82506,-14.04727 z"
     id="path1553" />
  <path
     style="fill:#ffffff;stroke-width:1.1764"
     d="M 927.59392,378.54036 C 907.2785,348.38404 887.12768,328.11676 857.4301,307.97101 l -11.85984,-8.04528 52.57741,-51.94356 52.57742,-51.94357 11.19366,8.63114 c 23.92541,18.44828 47.19525,41.63179 69.01805,68.7621 l 9.8146,12.20156 -52.16229,52.17213 c -28.68924,28.69468 -52.42917,52.15264 -52.75541,52.12883 -0.32623,-0.0238 -4.03413,-5.15112 -8.23978,-11.394 z"
     id="path1631" />
  <path
     style="fill:#ffffff;stroke-width:1.1764"
     d="m 966.00508,641.94306 -20.9972,-21.05839 1.89444,-3.66344 c 13.77651,-26.64085 21.85072,-65.04446 21.8603,-103.97489 0.009,-38.13842 -6.19554,-68.82139 -20.1603,-99.69139 l -3.43685,-7.59739 20.90405,-20.92829 20.90406,-20.92828 4.02837,7.93862 c 11.33425,22.33621 20.59615,47.661 26.56645,72.6408 6.7818,28.37467 7.0799,31.30323 7.0653,69.40779 -0.012,32.08276 -0.2594,36.52234 -2.7181,48.82073 -6.4191,32.10848 -15.3702,59.87545 -27.0496,83.91008 l -7.86371,16.18245 z"
     id="path1670" />
  <path
     style="fill:#ffffff;stroke-width:1.1764"
     d="m 1043.3108,583.20189 c 5.4264,-32.47171 5.8691,-37.57322 5.9467,-68.52549 0.077,-30.57575 -0.4326,-37.36116 -4.7517,-63.32697 -1.0042,-6.03737 -1.5554,-11.24753 -1.2248,-11.57813 0.7208,-0.72083 24.5315,6.54534 138.416,42.23969 47.5561,14.90531 89.2449,27.91039 92.6418,28.90017 3.3968,0.98979 6.1761,2.15477 6.1761,2.58884 0,0.43407 -2.7793,1.59397 -6.1761,2.57755 -3.3969,0.98359 -36.6156,11.35251 -73.8193,23.04205 -86.4739,27.17037 -155.4421,48.4938 -156.8476,48.4938 -0.6159,0 -0.7745,-1.93754 -0.3611,-4.41151 z"
     id="path1709" />
  <path
     style="fill:#ffffff;stroke-width:1.1764"
     d="m 898.00147,778.90729 -52.53231,-51.97637 7.24079,-4.65871 c 29.85131,-19.20629 52.04717,-40.8347 73.30112,-71.42714 4.83229,-6.95548 9.39116,-12.64633 10.13082,-12.64633 0.73966,0 24.5686,23.1892 52.95318,51.53156 l 51.60833,51.53155 -9.6655,12.10908 c -23.3469,29.24944 -48.5408,53.80755 -76.3867,74.4591 l -4.11741,3.05362 z"
     id="path1748" />
  <path
     style="fill:#ffffff;stroke-width:1.1764"
     d="m 710.35387,939.68216 c -4.53631,-5.67799 -22.89167,-29.53902 -40.78969,-53.02449 l -32.54185,-42.70086 v -5.90505 c 0,-5.08195 0.28696,-5.81637 2.05871,-5.26884 6.106,1.88693 23.45696,5.43294 33.23339,6.7919 12.84729,1.78581 82.66596,2.19622 86.46563,0.50827 1.29405,-0.57486 4.01983,-0.93595 6.05732,-0.80241 2.03747,0.13354 4.02318,-0.27284 4.41267,-0.90306 0.38951,-0.63022 1.64724,-0.90029 2.79498,-0.60015 1.77267,0.46356 14.88485,-1.96915 26.43864,-4.90517 3.18674,-0.80981 3.23511,-0.73947 3.23511,4.70369 0,5.42545 -0.61283,6.33032 -33.74821,49.83057 -39.08959,51.31697 -47.27406,61.82874 -48.48742,62.27503 -0.48479,0.17832 -4.59297,-4.32142 -9.12928,-9.99943 z"
     id="path1787" />
</svg>
