<?xml version="1.0" encoding="UTF-8" standalone="no"?>
<svg
   viewBox="0 0 189 111.554"
   version="1.1"
   id="svg4"
   sodipodi:docname="Wilds of Eldraine.svg"
   inkscape:version="1.1.2 (0a00cf5339, 2022-02-04)"
   xmlns:inkscape="http://www.inkscape.org/namespaces/inkscape"
   xmlns:sodipodi="http://sodipodi.sourceforge.net/DTD/sodipodi-0.dtd"
   xmlns="http://www.w3.org/2000/svg"
   xmlns:svg="http://www.w3.org/2000/svg">
  <defs
     id="defs8" />
  <sodipodi:namedview
     id="namedview6"
     pagecolor="#ffffff"
     bordercolor="#666666"
     borderopacity="1.0"
     inkscape:pageshadow="2"
     inkscape:pageopacity="0.0"
     inkscape:pagecheckerboard="0"
     showgrid="false"
     inkscape:zoom="6.5873016"
     inkscape:cx="94.5"
     inkscape:cy="55.409638"
     inkscape:window-width="3840"
     inkscape:window-height="2091"
     inkscape:window-x="0"
     inkscape:window-y="0"
     inkscape:window-maximized="1"
     inkscape:current-layer="svg4" />
  <path
     fill="#000"
     fill-rule="evenodd"
     d="M38.317 0c17.079 4.036 32.46 11.862 46.142 23.477-6.152 10.435-12.993 18.95-20.524 25.545 10.78 9.745 19.319 21.533 25.619 35.364v27.168C71.343 90.39 50.326 77.766 26.504 73.68L38.317 0Zm112.366 0 11.813 73.68c-23.822 4.086-44.839 16.71-63.05 37.874V84.386c6.3-13.83 14.84-25.619 25.619-35.364-7.53-6.595-14.372-15.11-20.524-25.545C118.223 11.862 133.604 4.036 150.683 0ZM13.806 13.88l15.135 5.758-9.672 58.767c18.605 2.166 35.216 10.656 49.834 25.471C43.657 94.771 20.623 91.818 0 95.016L13.806 13.88Zm161.388 0L189 95.017c-20.623-3.2-43.657-.246-69.103 8.86 14.618-14.816 31.23-23.306 49.834-25.472l-9.672-58.767 15.135-5.758ZM94.5 81.136l-.001-.001-.338-.821c-5.249-12.577-12.666-23.032-22.252-31.366 9.548-7.875 17.078-18.604 22.59-32.188 5.514 13.584 13.044 24.313 22.592 32.188-9.794 8.515-17.325 19.245-22.591 32.19v-.003.001Z"
     id="path2" />
  <path
     style="fill:#808080;stroke-width:0.151807"
     d="M 87.828595,109.43209 C 85.515849,106.80594 78.681161,100.02066 76.131325,97.819367 64.369946,87.66568 52.474408,80.857046 39.178564,76.668762 36.18973,75.727258 31.381469,74.511248 28.577829,73.987833 27.513346,73.789104 26.64234,73.558193 26.64226,73.474699 26.642068,73.273138 38.359557,0.16250428 38.39972,0.11466979 38.484738,0.01341155 44.514513,1.72909 47.411833,2.6789258 c 12.716366,4.1688408 24.83439,10.8557912 35.36159,19.5131822 1.441715,1.185642 1.543517,1.304621 1.379823,1.612662 -0.351238,0.660969 -2.481944,4.02036 -3.821597,6.02535 -4.220705,6.316913 -8.345458,11.306082 -13.500385,16.329635 l -2.970396,2.894696 2.213197,2.112145 c 8.687062,8.290433 15.851801,18.089553 21.527622,29.443043 l 1.89728,3.79518 -0.04225,13.414015 -0.04225,13.414016 z"
     id="path121" />
  <path
     style="fill:#808080;stroke-width:0.151807"
     d="M 93.750822,79.129518 C 91.951967,74.924171 89.04423,69.497196 86.491466,65.580723 83.322363,60.718656 80.30498,57.047302 75.709585,52.462029 l -3.562686,-3.554838 1.043418,-0.909592 c 1.817823,-1.584673 6.167356,-6.032847 7.670633,-7.844587 5.076233,-6.117849 9.443045,-13.348833 12.811836,-21.21506 0.402268,-0.939307 0.77621,-1.707832 0.830982,-1.707832 0.05477,0 0.394043,0.700211 0.753937,1.556025 2.537113,6.033166 6.615405,13.206095 10.292785,18.103012 2.71619,3.616966 7.10965,8.369934 10.2618,11.101509 l 1.04603,0.906461 -3.56165,3.55987 c -4.66918,4.666859 -7.5709,8.197363 -10.78636,13.123726 -2.550888,3.90819 -5.591538,9.584791 -7.257357,13.548795 -0.359643,0.855813 -0.694991,1.556024 -0.745217,1.556024 -0.05022,0 -0.390837,-0.700211 -0.756914,-1.556024 z"
     id="path160" />
  <path
     style="fill:#808080;stroke-width:0.151807"
     d="M 99.509639,97.808183 V 84.348569 l 2.018971,-3.994767 c 2.34442,-4.638721 3.95777,-7.433749 6.57696,-11.394172 4.34586,-6.57131 9.31972,-12.543531 14.81176,-17.784818 l 2.20459,-2.10393 -3.52244,-3.51014 c -4.38423,-4.368931 -6.98561,-7.388635 -10.34741,-12.011344 -1.88769,-2.595707 -5.63779,-8.300109 -6.40162,-9.737718 -0.15914,-0.299529 -0.0362,-0.438445 1.53163,-1.730731 10.3574,-8.53704 22.53468,-15.2479206 35.20609,-19.4020232 2.89732,-0.9498358 8.92709,-2.66551425 9.01211,-2.56425601 0.0403,0.0479646 11.75761,73.15851821 11.75758,73.36161221 -2e-5,0.08436 -0.66608,0.274619 -1.48015,0.422789 -4.24399,0.772458 -10.0897,2.353333 -14.49431,3.919745 -15.92793,5.664454 -31.02039,16.049015 -43.87978,30.192024 -1.25261,1.37765 -2.43869,2.67405 -2.635731,2.88089 l -0.35825,0.37607 z"
     id="path199" />
  <path
     style="fill:#808080;stroke-width:0.151807"
     d="m 120.61084,103.26737 c 2.68891,-2.71166 7.38575,-6.759595 10.81486,-9.320688 9.06007,-6.766676 19.12113,-11.504278 29.5673,-13.922796 2.66744,-0.617572 6.07358,-1.234243 7.70278,-1.394568 0.65226,-0.06419 1.09867,-0.177618 1.09585,-0.278451 -0.003,-0.09358 -2.17341,-13.329267 -4.82399,-29.41264 l -4.81924,-29.242495 7.43169,-2.825112 c 4.08743,-1.553811 7.46641,-2.79038 7.50886,-2.747931 0.0721,0.07209 13.83503,80.731992 13.78308,80.777877 -0.0131,0.01158 -0.63332,-0.07004 -1.37825,-0.181378 -7.27118,-1.086725 -17.63044,-1.290413 -26.1986,-0.515126 -6.86575,0.621246 -14.98642,2.007484 -22.31566,3.809392 -5.25348,1.291577 -13.89038,3.879586 -18.44458,5.526826 -0.261,0.0944 -0.25035,0.0561 0.0759,-0.27291 z"
     id="path238" />
  <path
     style="fill:#808080;stroke-width:0.151807"
     d="M 64.736541,102.30485 C 52.078542,98.004043 39.135324,95.215219 26.718072,94.11316 22.989049,93.782201 13.827854,93.654079 10.171084,93.881744 7.00158,94.079073 3.6312509,94.405136 1.5180723,94.718879 0.76662651,94.830445 0.14102286,94.912229 0.12784195,94.900622 0.07573579,94.854737 13.838676,14.195059 13.910942,14.122793 c 0.04251,-0.04251 3.421542,1.194016 7.508968,2.747827 l 7.431685,2.825112 -4.819695,29.242495 c -2.650832,16.083373 -4.789616,29.327887 -4.752851,29.432255 0.03676,0.104367 0.222692,0.189935 0.413175,0.190152 0.720629,7.59e-4 5.259888,0.776922 7.597828,1.299048 13.147221,2.936131 25.563564,9.428486 36.393081,19.029495 2.091662,1.854383 5.098099,4.722293 4.927951,4.700883 -0.08031,-0.0101 -1.823858,-0.58845 -3.874543,-1.28521 z"
     id="path277" />
  <path
     style="fill:#ffffff;stroke-width:0.151807"
     d="M 87.87116,109.35145 C 85.778609,106.99298 77.532231,98.886114 75.372289,97.064022 64.243483,87.675943 53.494903,81.433728 41.399677,77.334501 37.481466,76.00657 31.94189,74.509875 31.638696,74.69726 31.562413,74.744405 31.5,74.722036 31.5,74.647552 c 0,-0.118233 -0.71179,-0.291893 -3.98494,-0.972228 -0.549624,-0.114242 -0.721084,-0.217358 -0.721084,-0.433657 0,-0.367481 11.42468,-71.8304248 11.619764,-72.68321955 0.09794,-0.42814137 -0.03052,-0.45036637 3.940477,0.68172335 11.512888,3.2822013 21.197456,7.6980612 30.916173,14.0968072 4.146114,2.729776 10.610899,7.616718 10.796101,8.161122 0.131984,0.387973 -4.358172,7.256992 -7.375627,11.283196 -2.846197,3.797695 -5.388258,6.708113 -9.398922,10.760873 -1.900415,1.920361 -3.455683,3.505021 -3.456151,3.521463 -4.55e-4,0.01644 1.525265,1.553492 3.390521,3.415662 5.618326,5.609041 9.185939,9.943819 13.414782,16.29945 2.730575,4.103844 4.778538,7.687252 7.282066,12.741738 l 1.503826,3.036144 -0.08217,13.181566 -0.08217,13.181568 z"
     id="path66" />
  <path
     style="fill:#ffffff;stroke-width:0.151807"
     d="m 93.743485,78.901807 c -1.778657,-4.062251 -4.932871,-9.899138 -7.40371,-13.700602 -2.50401,-3.852496 -6.472679,-8.737467 -9.311559,-11.461446 -0.696127,-0.667952 -1.268205,-1.248615 -1.271285,-1.290362 -0.0031,-0.04175 -0.780875,-0.827977 -1.728434,-1.747179 l -1.722835,-1.671276 4.01666,-4.021495 c 4.122416,-4.127378 5.845678,-6.134333 8.406283,-9.79017 3.375633,-4.819473 6.122476,-9.714666 8.710035,-15.522289 0.530104,-1.189789 1.00668,-2.163253 1.059057,-2.163253 0.05238,0 0.688786,1.31503 1.414241,2.922289 2.588349,5.734545 6.118522,11.823905 9.459772,16.317624 2.44795,3.292299 6.56781,7.83419 9.53334,10.509901 0.96896,0.874266 1.744,1.640346 1.72232,1.7024 -0.0217,0.06205 -1.68202,1.771867 -3.68964,3.799583 -4.53342,4.578804 -7.07551,7.614481 -9.88843,11.808444 -2.32139,3.461118 -5.599021,9.412979 -7.419384,13.472891 -0.570909,1.273283 -1.083093,2.315061 -1.138188,2.315061 -0.05509,0 -0.391804,-0.666055 -0.748243,-1.480121 z"
     id="path105" />
  <path
     style="fill:#ffffff;stroke-width:0.151807"
     d="M 99.509638,97.818234 V 84.519415 l 2.253762,-4.390587 c 3.31934,-6.466462 6.05582,-10.88314 10.04832,-16.217985 3.46004,-4.623359 6.70968,-8.321345 10.81263,-12.304434 l 2.59308,-2.517325 -2.80428,-2.836108 c -5.12504,-5.183208 -7.02608,-7.339919 -10.12716,-11.489121 -1.60869,-2.152408 -6.29565,-9.102524 -7.04642,-10.448874 l -0.40886,-0.733211 0.48946,-0.45324 c 1.95142,-1.806992 6.7084,-5.360021 10.61527,-7.928631 9.50831,-6.2513379 19.24394,-10.6758244 30.71034,-13.9567222 3.96588,-1.13476246 3.84244,-1.11331206 3.94048,-0.68472935 0.19571,0.85554525 11.61976,72.31621755 11.61976,72.68491255 0,0.225275 -0.18405,0.323745 -0.87289,0.466998 -5.07291,1.054984 -10.66446,2.490357 -10.66446,2.737607 0,0.07109 -0.0875,0.09566 -0.19455,0.0546 -0.25387,-0.09742 -4.92739,1.488246 -7.88344,2.674752 -2.6417,1.060334 -7.60229,3.434423 -10.51839,5.033994 -10.3103,5.655524 -20.13327,13.469036 -28.95983,23.035589 -1.50468,1.63083 -2.93086,3.16877 -3.169301,3.41765 l -0.433521,0.4525 z"
     id="path144" />
  <path
     style="fill:#ffffff;stroke-width:0.151807"
     d="m 120.92138,103.06877 c 0.38838,-0.46798 4.51533,-4.15676 6.52079,-5.828469 11.65061,-9.711717 24.40426,-15.730128 38.25542,-18.052638 1.46114,-0.244999 2.98111,-0.490582 3.37771,-0.545739 0.701,-0.09749 0.72109,-0.114826 0.72109,-0.62231 0,-0.287113 -0.0619,-0.522024 -0.1376,-0.522024 -0.0757,0 -0.10775,-0.119548 -0.0713,-0.265662 0.0594,-0.238017 -1.92211,-12.456676 -7.52536,-46.403579 -1.005,-6.088746 -1.81073,-11.081049 -1.7905,-11.094006 0.12245,-0.07843 11.44151,-4.332033 12.94866,-4.865994 l 1.82994,-0.648323 0.31937,1.922517 c 0.17566,1.057384 1.58661,9.300349 3.13545,18.317698 6.11522,35.60276 10.2848,60.224584 10.2112,60.298191 -0.0276,0.02755 -0.79475,-0.05282 -1.70487,-0.17861 -4.12927,-0.570711 -6.45992,-0.713182 -12.96441,-0.792507 -6.71098,-0.08184 -9.492,0.0163 -14.34579,0.506266 -1.3359,0.134852 -2.44657,0.289448 -2.46816,0.343546 -0.0216,0.0541 -0.31192,0.07236 -0.64518,0.04057 -0.33326,-0.03178 -0.60635,6.08e-4 -0.60687,0.07202 -4.5e-4,0.07139 -0.325,0.136582 -0.72108,0.144869 -1.02006,0.02134 -6.02306,0.840332 -6.08432,0.996 -0.028,0.07116 -0.10908,0.09343 -0.18016,0.0495 -0.17434,-0.107751 -2.27374,0.24569 -2.27374,0.382793 0,0.05968 -0.17079,0.07586 -0.37952,0.03596 -0.21624,-0.04134 -0.37952,-0.0017 -0.37952,0.09219 0,0.09061 -0.0894,0.130444 -0.19861,0.08853 -0.59605,-0.228725 -14.98211,3.378884 -14.98211,3.757081 0,0.078 -0.067,0.10033 -0.14896,0.0497 -0.15653,-0.0967 -3.68976,0.94697 -7.48461,2.21093 -1.23443,0.41115 -2.28457,0.74755 -2.33365,0.74755 -0.0491,0 -0.001,-0.10622 0.10667,-0.23605 z"
     id="path183" />
  <path
     style="fill:#ffffff;stroke-width:0.151807"
     d="m 65.656626,102.52719 c -3.345269,-1.14635 -8.073116,-2.592763 -11.563267,-3.537616 -3.855301,-1.043706 -9.077717,-2.246791 -9.331035,-2.149584 -0.103007,0.03953 -0.208779,0.01762 -0.235046,-0.04868 -0.09478,-0.239242 -9.192193,-1.842915 -10.710985,-1.88811 -0.437665,-0.01302 -0.79631,-0.08209 -0.796988,-0.153481 -6.07e-4,-0.07139 -0.274486,-0.103741 -0.608462,-0.07189 -0.333976,0.03185 -0.607229,0.01725 -0.607229,-0.03245 0,-0.128268 -4.644695,-0.589106 -7.600547,-0.75411 C 19.14437,93.608876 7.2292881,93.77211 6.1485626,94.138612 c -0.1250376,0.0424 -0.721592,0.104076 -1.3256765,0.13705 -0.6040846,0.03297 -1.8612473,0.166361 -2.793695,0.296416 -0.9324476,0.130044 -1.71777075,0.21404 -1.74516252,0.18665 C 0.20562323,94.680323 7.7809906,50.057172 13.320511,17.966556 l 0.645928,-3.741878 0.683045,0.227795 c 0.375675,0.125287 3.27895,1.205426 6.451721,2.400308 7.32124,2.757217 7.58275,2.856076 7.627771,2.883549 0.02058,0.01256 -0.948665,5.994788 -2.153867,13.29385 -4.17084,25.259838 -5.264111,32.057172 -5.187945,32.25566 0.04208,0.109651 0.02206,0.220855 -0.04449,0.247123 -0.101518,0.04007 -1.661999,9.353758 -1.928334,11.509206 -0.200162,1.619907 -0.222041,1.503884 0.298042,1.580565 4.548881,0.670692 7.183073,1.187135 10.483555,2.055342 12.39513,3.260593 24.499262,10.046083 34.666082,19.433554 0.952585,0.87957 2.118806,1.9552 2.591602,2.39028 0.472796,0.43509 0.757158,0.78849 0.631917,0.78533 -0.125241,-0.003 -1.218253,-0.34519 -2.428916,-0.76005 z"
     id="path222" />
</svg>
